<svg xmlns="http://www.w3.org/2000/svg" width="31" height="17" viewBox="0 0 31 17">
  <path stroke-width="1" d="M5,1.5L19,1.5" fill="none" stroke="#1e87ff"/>
  <path stroke-width="1" d="M5,8.5L19,8.5" fill="none" stroke="#1e87ff"/>
  <path stroke-width="1" d="M5,15.5L19,15.5" fill="none" stroke="#1e87ff"/>
  <path stroke-width="1" d="M19,1.5L31,1.5" fill="none" stroke="#1e87ff"/>
  <path stroke-width="1" d="M19,8.5L31,8.5" fill="none" stroke="#1e87ff"/>
  <path stroke-width="1" d="M19,15.5L31,15.5" fill="none" stroke="#1e87ff"/>
  <path d="M1.5,1.5m-1.5,0a1.5,1.5 0,1 1,3 0a1.5,1.5 0,1 1,-3 0" fill="#1f86ff"/>
  <path d="M1.5,8.5m-1.5,0a1.5,1.5 0,1 1,3 0a1.5,1.5 0,1 1,-3 0" fill="#1f86ff"/>
  <path d="M1.5,15.5m-1.5,0a1.5,1.5 0,1 1,3 0a1.5,1.5 0,1 1,-3 0" fill="#1f86ff"/>
</svg>
